<svg xmlns="http://www.w3.org/2000/svg" width="296" height="56" viewBox="0 0 296 56">
  <g id="Сгруппировать_4" data-name="Сгруппировать 4" transform="translate(-652 -3292)">
    <path id="Rettangolo_9_copia" data-name="Rettangolo 9 copia" d="M3,0H240a0,0,0,0,1,0,0V56a0,0,0,0,1,0,0H3a3,3,0,0,1-3-3V3A3,3,0,0,1,3,0Z" transform="translate(652 3292)" fill="#1abc9c"/>
    <path id="Rettangolo_10_copia" data-name="Rettangolo 10 copia" d="M0,0H53a3,3,0,0,1,3,3V53a3,3,0,0,1-3,3H0a0,0,0,0,1,0,0V0A0,0,0,0,1,0,0Z" transform="translate(892 3292)" fill="#16a085"/>
  </g>
</svg>
