<svg xmlns="http://www.w3.org/2000/svg" width="296" height="56" viewBox="0 0 296 56">
  <g id="Сгруппировать_6" data-name="Сгруппировать 6" transform="translate(-652 -3292)">
    <g id="Сгруппировать_4" data-name="Сгруппировать 4">
      <path id="Rettangolo_9_copia" data-name="Rettangolo 9 copia" d="M3,0H240a0,0,0,0,1,0,0V56a0,0,0,0,1,0,0H3a3,3,0,0,1-3-3V3A3,3,0,0,1,3,0Z" transform="translate(652 3292)" fill="#1abc9c"/>
      <path id="Rettangolo_10_copia" data-name="Rettangolo 10 copia" d="M0,0H53a3,3,0,0,1,3,3V53a3,3,0,0,1-3,3H0a0,0,0,0,1,0,0V0A0,0,0,0,1,0,0Z" transform="translate(892 3292)" fill="#16a085"/>
    </g>
    <text id="PLAY_STORE" data-name="PLAY STORE" transform="translate(681.914 3327.273)" fill="#fff" font-size="18" font-family="Helvetica" letter-spacing="0.15em"><tspan x="0" y="0">PLAY STORE</tspan></text>
    <path id="fa-android" d="M916.75,3312.179a.68.68,0,1,1,.692-.68A.683.683,0,0,1,916.75,3312.179Zm7.49,0a.68.68,0,1,1,.674-.68A.687.687,0,0,1,924.241,3312.179Zm-14.412,3.209a1.806,1.806,0,0,0-1.828,1.779v7.5a1.819,1.819,0,0,0,3.639,0v-7.5A1.8,1.8,0,0,0,909.828,3315.388Zm18.814.331H912.349v11.615a1.93,1.93,0,0,0,1.952,1.918h1.313l.018,3.959a1.819,1.819,0,0,0,3.639,0v-3.959h2.449v3.959a1.828,1.828,0,0,0,3.656,0v-3.959h1.331a1.926,1.926,0,0,0,1.935-1.918Zm-4.118-7.063,1.26-2.284a.252.252,0,0,0-.089-.349.284.284,0,0,0-.355.1l-1.278,2.3a9.055,9.055,0,0,0-7.135,0l-1.278-2.3a.284.284,0,0,0-.355-.1.252.252,0,0,0-.089.349l1.26,2.284a7.267,7.267,0,0,0-4.189,6.435H928.7A7.281,7.281,0,0,0,924.524,3308.657Zm8.467,8.51a1.82,1.82,0,0,0-3.639,0v7.5a1.82,1.82,0,0,0,3.639,0Z" fill="#fff"/>
  </g>
</svg>
